<svg width="40" height="40" viewBox="0 0 40 40" fill="none" xmlns="http://www.w3.org/2000/svg">
<rect width="40" height="40" rx="12" fill="#3461FF"/>
<g clip-path="url(#clip0_86_150)">
<path fill-rule="evenodd" clip-rule="evenodd" d="M11.9499 30.3H28.05C29.3449 30.3 30.2649 29.7354 30.8238 28.9591C31.339 28.2427 31.5 27.4181 31.5 26.85V19.95C31.5 19.645 31.3788 19.3525 31.1632 19.1368C30.9475 18.9212 30.655 18.8 30.35 18.8H26.9V13.05C26.9 12.135 26.5365 11.2575 25.8895 10.6105C25.2425 9.96346 24.365 9.59998 23.45 9.59998H11.9499C11.0349 9.59998 10.1574 9.96346 9.51042 10.6105C8.86342 11.2575 8.49994 12.135 8.49994 13.05V26.85C8.49994 27.417 8.66094 28.2427 9.17614 28.9591C9.73504 29.7365 10.655 30.3 11.9499 30.3ZM28.05 21.1C28.355 21.1 28.6475 21.2212 28.8632 21.4368C29.0788 21.6525 29.2 21.945 29.2 22.25V26.85C29.2 27.155 29.0788 27.4475 28.8632 27.6632C28.6475 27.8789 28.355 28 28.05 28C27.745 28 27.4525 27.8789 27.2368 27.6632C27.0211 27.4475 26.9 27.155 26.9 26.85V22.25C26.9 21.945 27.0211 21.6525 27.2368 21.4368C27.4525 21.2212 27.745 21.1 28.05 21.1ZM16.55 17.65C16.55 17.345 16.6711 17.0525 16.8868 16.8368C17.1025 16.6212 17.395 16.5 17.7 16.5C18.005 16.5 18.2975 16.6212 18.5131 16.8368C18.7288 17.0525 18.85 17.345 18.85 17.65C18.85 17.955 18.7288 18.2475 18.5131 18.4632C18.2975 18.6788 18.005 18.8 17.7 18.8C17.395 18.8 17.1025 18.6788 16.8868 18.4632C16.6711 18.2475 16.55 17.955 16.55 17.65ZM17.7 14.2C16.785 14.2 15.9074 14.5635 15.2604 15.2105C14.6134 15.8575 14.25 16.735 14.25 17.65C14.25 18.565 14.6134 19.4425 15.2604 20.0895C15.9074 20.7365 16.785 21.1 17.7 21.1C18.615 21.1 19.4925 20.7365 20.1395 20.0895C20.7865 19.4425 21.15 18.565 21.15 17.65C21.15 16.735 20.7865 15.8575 20.1395 15.2105C19.4925 14.5635 18.615 14.2 17.7 14.2ZM14.25 23.4C13.945 23.4 13.6524 23.5212 13.4368 23.7368C13.2211 23.9525 13.0999 24.245 13.0999 24.55C13.0999 24.855 13.2211 25.1475 13.4368 25.3632C13.6524 25.5789 13.945 25.7 14.25 25.7H21.15C21.455 25.7 21.7475 25.5789 21.9631 25.3632C22.1788 25.1475 22.3 24.855 22.3 24.55C22.3 24.245 22.1788 23.9525 21.9631 23.7368C21.7475 23.5212 21.455 23.4 21.15 23.4H14.25Z" fill="#F9FCFD"/>
</g>
<defs>
<clipPath id="clip0_86_150">
<rect width="23" height="23" fill="white" transform="translate(8.5 8.5)"/>
</clipPath>
</defs>
</svg>
