<svg width="106" height="106" viewBox="0 0 106 106" fill="none" xmlns="http://www.w3.org/2000/svg">
<rect width="106" height="106" rx="24" fill="#3461FF"/>
<path d="M54.15 34.6C53.845 34.6 53.5525 34.7211 53.3368 34.9368C53.1212 35.1525 53 35.445 53 35.75V41.73C53 44.8971 55.1321 47.5628 58.037 48.377C57.531 54.679 55.7094 59.3825 54.2167 62.2828C54.6399 62.7796 55.0378 63.1499 55.3483 63.4098C56.542 64.408 57.6 66.0341 57.6 68.0627C57.6015 69.2636 57.2178 70.4333 56.5052 71.4H69.1C70.015 71.4 70.8925 71.0365 71.5395 70.3895C72.1865 69.7425 72.55 68.865 72.55 67.95V67.2439C72.55 66.4435 72.2763 65.7052 71.8554 65.1003C70.6134 63.3132 67.0967 57.5333 66.3607 48.3747C67.8104 47.9683 69.0875 47.099 69.9973 45.8994C70.9071 44.6998 71.3997 43.2356 71.4 41.73V35.75C71.4 35.445 71.2788 35.1525 71.0632 34.9368C70.8475 34.7211 70.555 34.6 70.25 34.6H68.525C68.0675 34.6 67.6287 34.7817 67.3052 35.1052C66.9817 35.4287 66.8 35.8675 66.8 36.325V38.05C66.8003 38.201 66.7709 38.3506 66.7133 38.4902C66.6558 38.6299 66.5714 38.7568 66.4648 38.8638C66.2496 39.0799 65.9573 39.2017 65.6523 39.2023C65.3473 39.2029 65.0546 39.0823 64.8385 38.8671C64.6224 38.6518 64.5006 38.3596 64.5 38.0546V38.05L64.4908 36.3158C64.4884 35.8599 64.3056 35.4235 63.9823 35.102C63.6591 34.7804 63.2217 34.6 62.7658 34.6H61.6342C61.1783 34.6 60.7409 34.7804 60.4177 35.102C60.0945 35.4235 59.9116 35.8599 59.9092 36.3158L59.9 38.0546C59.8994 38.3596 59.7777 38.6518 59.5616 38.8671C59.3455 39.0823 59.0527 39.2029 58.7477 39.2023C58.4427 39.2017 58.1504 39.0799 57.9352 38.8638C57.72 38.6477 57.5994 38.355 57.6 38.05V36.325C57.6 35.8675 57.4183 35.4287 57.0948 35.1052C56.7713 34.7817 56.3325 34.6 55.875 34.6H54.15ZM44.95 41.5C43.618 41.5 42.3145 41.8856 41.1968 42.6101C40.0792 43.3346 39.1951 44.3672 38.6513 45.5831C38.1076 46.7991 37.9274 48.1464 38.1325 49.4625C38.3376 50.7786 38.9192 52.0072 39.8072 53H39.2C38.59 53 38.005 53.2423 37.5737 53.6736C37.1423 54.105 36.9 54.69 36.9 55.3C36.9 55.91 37.1423 56.495 37.5737 56.9263C38.005 57.3577 38.59 57.6 39.2 57.6H40.396C39.5404 61.7354 37.2841 64.1228 36.026 65.1739C35.2302 65.8409 34.6 66.8667 34.6 68.0627C34.6 69.905 36.095 71.4 37.9373 71.4H51.965C53.805 71.4 55.3 69.905 55.3 68.0627C55.3 66.8667 54.6698 65.8409 53.874 65.1739C52.6159 64.1228 50.3596 61.7354 49.504 57.6H50.7C51.31 57.6 51.895 57.3577 52.3264 56.9263C52.7577 56.495 53 55.91 53 55.3C53 54.69 52.7577 54.105 52.3264 53.6736C51.895 53.2423 51.31 53 50.7 53H50.0928C50.9808 52.0072 51.5624 50.7786 51.7676 49.4625C51.9727 48.1464 51.7925 46.7991 51.2487 45.5831C50.7049 44.3672 49.8208 43.3346 48.7032 42.6101C47.5855 41.8856 46.282 41.5 44.95 41.5Z" fill="#F9FCFD"/>
</svg>
