<svg width="59" height="59" viewBox="0 0 59 59" fill="none" xmlns="http://www.w3.org/2000/svg">
<g filter="url(#filter0_d_86_174)">
<rect x="6.75" y="3.75" width="45" height="45" rx="10" fill="#10BC35" fill-opacity="0.19" shape-rendering="crispEdges"/>
</g>
<g clip-path="url(#clip0_86_174)">
<path fill-rule="evenodd" clip-rule="evenodd" d="M17.925 42.45H42.075C44.0174 42.45 45.3974 41.603 46.2357 40.4386C47.0085 39.3639 47.25 38.1271 47.25 37.275V26.9249C47.25 26.4674 47.0683 26.0287 46.7448 25.7052C46.4213 25.3817 45.9825 25.1999 45.525 25.1999H40.35V16.5749C40.35 15.2024 39.8048 13.8861 38.8343 12.9156C37.8638 11.9451 36.5475 11.3999 35.175 11.3999H17.925C16.5525 11.3999 15.2362 11.9451 14.2657 12.9156C13.2952 13.8861 12.7499 15.2024 12.7499 16.5749V37.275C12.7499 38.1254 12.9914 39.3639 13.7642 40.4386C14.6026 41.6047 15.9826 42.45 17.925 42.45ZM42.075 28.6499C42.5325 28.6499 42.9713 28.8317 43.2948 29.1552C43.6183 29.4787 43.8 29.9174 43.8 30.3749V37.275C43.8 37.7325 43.6183 38.1712 43.2948 38.4947C42.9713 38.8182 42.5325 39 42.075 39C41.6175 39 41.1787 38.8182 40.8552 38.4947C40.5317 38.1712 40.35 37.7325 40.35 37.275V30.3749C40.35 29.9174 40.5317 29.4787 40.8552 29.1552C41.1787 28.8317 41.6175 28.6499 42.075 28.6499ZM24.825 23.4749C24.825 23.0174 25.0067 22.5787 25.3302 22.2552C25.6537 21.9317 26.0925 21.7499 26.55 21.7499C27.0075 21.7499 27.4462 21.9317 27.7697 22.2552C28.0932 22.5787 28.275 23.0174 28.275 23.4749C28.275 23.9324 28.0932 24.3712 27.7697 24.6947C27.4462 25.0182 27.0075 25.1999 26.55 25.1999C26.0925 25.1999 25.6537 25.0182 25.3302 24.6947C25.0067 24.3712 24.825 23.9324 24.825 23.4749ZM26.55 18.2999C25.1775 18.2999 23.8612 18.8451 22.8907 19.8156C21.9202 20.7861 21.375 22.1024 21.375 23.4749C21.375 24.8474 21.9202 26.1637 22.8907 27.1342C23.8612 28.1047 25.1775 28.6499 26.55 28.6499C27.9225 28.6499 29.2388 28.1047 30.2093 27.1342C31.1798 26.1637 31.725 24.8474 31.725 23.4749C31.725 22.1024 31.1798 20.7861 30.2093 19.8156C29.2388 18.8451 27.9225 18.2999 26.55 18.2999ZM21.375 32.0999C20.9175 32.0999 20.4787 32.2817 20.1552 32.6052C19.8317 32.9287 19.65 33.3675 19.65 33.825C19.65 34.2825 19.8317 34.7212 20.1552 35.0447C20.4787 35.3682 20.9175 35.55 21.375 35.55H31.725C32.1825 35.55 32.6212 35.3682 32.9447 35.0447C33.2682 34.7212 33.45 34.2825 33.45 33.825C33.45 33.3675 33.2682 32.9287 32.9447 32.6052C32.6212 32.2817 32.1825 32.0999 31.725 32.0999H21.375Z" fill="#10BC35"/>
</g>
<defs>
<filter id="filter0_d_86_174" x="0" y="0" width="58.5" height="58.5" filterUnits="userSpaceOnUse" color-interpolation-filters="sRGB">
<feFlood flood-opacity="0" result="BackgroundImageFix"/>
<feColorMatrix in="SourceAlpha" type="matrix" values="0 0 0 0 0 0 0 0 0 0 0 0 0 0 0 0 0 0 127 0" result="hardAlpha"/>
<feOffset dy="3"/>
<feGaussianBlur stdDeviation="3.375"/>
<feComposite in2="hardAlpha" operator="out"/>
<feColorMatrix type="matrix" values="0 0 0 0 0 0 0 0 0 0 0 0 0 0 0 0 0 0 0.05 0"/>
<feBlend mode="normal" in2="BackgroundImageFix" result="effect1_dropShadow_86_174"/>
<feBlend mode="normal" in="SourceGraphic" in2="effect1_dropShadow_86_174" result="shape"/>
</filter>
<clipPath id="clip0_86_174">
<rect width="34.5" height="34.5" fill="white" transform="translate(12.75 9.75)"/>
</clipPath>
</defs>
</svg>
