<svg width="96" height="96" viewBox="0 0 96 96" fill="none" xmlns="http://www.w3.org/2000/svg">
<rect width="96" height="96" rx="48" fill="#CFFAFE"/>
<path d="M70 49.9998C68.7597 50.0016 67.5504 50.3869 66.5377 51.1031C65.5251 51.8192 64.7587 52.831 64.3438 53.9998H59.4412L55.8975 43.3673C55.7624 42.9622 55.5011 42.611 55.1519 42.3651C54.8028 42.1191 54.3841 41.9914 53.9571 42.0007C53.5301 42.0099 53.1173 42.1555 52.7791 42.4163C52.4409 42.6771 52.195 43.0392 52.0775 43.4498L46.5138 62.9198L39.9725 23.6698C39.8966 23.2166 39.6671 22.8034 39.3224 22.4996C38.9777 22.1958 38.5389 22.0199 38.0798 22.0016C37.6206 21.9833 37.1692 22.1236 36.8014 22.3989C36.4336 22.6743 36.1718 23.0679 36.06 23.5136L28.4388 53.9998H22C21.4696 53.9998 20.9609 54.2105 20.5858 54.5856C20.2107 54.9607 20 55.4694 20 55.9998C20 56.5303 20.2107 57.039 20.5858 57.414C20.9609 57.7891 21.4696 57.9998 22 57.9998H30C30.446 57.9997 30.8792 57.8506 31.2307 57.5761C31.5822 57.3016 31.8318 56.9175 31.94 56.4848L37.6075 33.8136L44.0275 72.3286C44.1015 72.777 44.326 73.1869 44.6641 73.4907C45.0022 73.7945 45.4337 73.9741 45.8875 73.9998C45.925 73.9998 45.9625 73.9998 46.0012 73.9998C46.4355 73.9995 46.8578 73.8578 47.2044 73.5962C47.551 73.3346 47.8031 72.9673 47.9225 72.5498L54.1475 50.7648L56.1025 56.6323C56.2353 57.0306 56.49 57.3769 56.8305 57.6224C57.1711 57.8678 57.5802 57.9998 58 57.9998H64.3438C64.7104 59.0369 65.3552 59.9533 66.2075 60.6487C67.0598 61.3441 68.0868 61.7918 69.1764 61.9429C70.266 62.094 71.3762 61.9427 72.3856 61.5054C73.395 61.0682 74.2647 60.3619 74.8998 59.4637C75.5348 58.5655 75.9107 57.51 75.9864 56.4126C76.0621 55.3152 75.8346 54.2181 75.3288 53.2412C74.8231 52.2644 74.0585 51.4453 73.1187 50.8737C72.1789 50.302 71.1 49.9997 70 49.9998Z" fill="#0891B2"/>
</svg>
