<svg width="160" height="47" viewBox="0 0 160 47" fill="none" xmlns="http://www.w3.org/2000/svg">
<mask id="mask0_105_784" style="mask-type:luminance" maskUnits="userSpaceOnUse" x="0" y="2" width="50" height="45">
<path d="M0 2.31585H49.3603V46.2349H0V2.31585Z" fill="white"/>
</mask>
<g mask="url(#mask0_105_784)">
<path d="M8.7004 10.047H15.7652V2.31821H8.7004V10.047ZM19.0304 19.5125H11.9676V26.8405H19.0304V19.5125ZM0 31.0328H7.06477V23.7048H0V31.0328ZM15.2206 46.3789H34.2834C36.5546 46.3789 38.6032 46.1482 40.4453 45.6927C42.2773 45.2352 43.8603 44.5469 45.1781 43.634C46.4919 42.715 47.5061 41.5692 48.2105 40.1988C48.917 38.8243 49.2692 37.219 49.2814 35.389V35.2757C49.2692 33.4923 48.9656 31.9741 48.3644 30.7251C47.7652 29.4741 46.9028 28.4235 45.7895 27.5753C44.672 26.7271 43.336 26.0105 41.7834 25.4295C42.7449 24.9052 43.6316 24.2554 44.4251 23.4822C45.2166 22.7089 45.8441 21.7757 46.3218 20.6785C46.7915 19.5814 47.0384 18.2838 47.0465 16.7838V16.6704C47.0465 15.298 46.8178 14.047 46.3623 12.9214C45.9028 11.7959 45.2166 10.7737 44.2976 9.85869C43.1457 8.70485 41.6842 7.83035 39.919 7.22509C38.1538 6.61983 36.1235 6.30809 33.8239 6.30809H27.3138V10.4943H21.4777V18.221H28.5405V14.0368H32.5081C34.3765 14.0368 35.8117 14.3992 36.7915 15.1057C37.7834 15.8202 38.2793 16.8344 38.2895 18.1583V18.2737C38.2793 19.2656 38.0243 20.0672 37.5061 20.6967C36.9919 21.3182 36.2571 21.7757 35.3117 22.0712C34.3684 22.3668 33.2409 22.5105 31.9352 22.5105H23.3725V29.8344H33.9959C36.249 29.8344 37.8988 30.2352 38.9575 31.0004C40.0182 31.7635 40.5303 32.8303 40.5202 34.1866V34.302C40.5202 35.2959 40.2652 36.1056 39.7672 36.7534C39.2712 37.3911 38.5567 37.8708 37.6316 38.1826C36.7044 38.5004 35.587 38.6542 34.2834 38.6542H16.9858V33.6502H9.92307V40.9781H15.2206V46.3789Z" fill="#3461FF"/>
</g>
<mask id="mask1_105_784" style="mask-type:luminance" maskUnits="userSpaceOnUse" x="52" y="0" width="108" height="44">
<path d="M160 -3.8147e-06H52.2106V43.0121H160V-3.8147e-06Z" fill="white"/>
</mask>
<g mask="url(#mask1_105_784)">
<mask id="mask2_105_784" style="mask-type:luminance" maskUnits="userSpaceOnUse" x="52" y="0" width="108" height="43">
<path d="M52.4798 0.41497H159.565V42.5769H52.4798V0.41497Z" fill="white"/>
</mask>
<g mask="url(#mask2_105_784)">
<mask id="mask3_105_784" style="mask-type:luminance" maskUnits="userSpaceOnUse" x="52" y="0" width="108" height="44">
<path d="M160 -3.8147e-06H52.2106V43.0121H160V-3.8147e-06Z" fill="white"/>
</mask>
<g mask="url(#mask3_105_784)">
<path d="M53.8982 19.1741V5.48177H60.6513C61.4812 5.48177 62.1695 5.59513 62.716 5.82185C63.2606 6.04857 63.6877 6.34411 63.9954 6.70444C64.3031 7.06071 64.5177 7.44128 64.6432 7.84614C64.7727 8.24695 64.8375 8.62144 64.8375 8.97164C64.8375 9.62549 64.7403 10.1417 64.546 10.5182C64.3517 10.8967 64.1209 11.1801 63.8577 11.3684C63.5926 11.5587 63.3658 11.7004 63.1776 11.7976C63.7444 12.004 64.1755 12.2793 64.4731 12.6235C64.7747 12.9696 64.9832 13.3522 65.0966 13.7733C65.21 14.1943 65.2666 14.6316 65.2666 15.085C65.2666 15.3239 65.2343 15.6113 65.1695 15.9514C65.1087 16.2915 64.9832 16.6518 64.7889 17.0283C64.5946 17.4008 64.297 17.753 63.8982 18.081C63.5035 18.4048 62.9691 18.67 62.295 18.8745C61.6249 19.0749 60.7889 19.1741 59.7849 19.1741H53.8982ZM56.7484 13.1417V16.8178H60.214C60.9205 16.8178 61.465 16.6559 61.8496 16.332C62.2322 16.004 62.4245 15.4939 62.4245 14.8016C62.4245 14.3967 62.3213 14.0769 62.1168 13.838C61.9164 13.6012 61.6634 13.4251 61.3557 13.3117C61.048 13.1984 60.7181 13.1417 60.3679 13.1417H56.7484ZM56.7484 7.83804V10.8421H60.0845C60.6513 10.8421 61.129 10.7247 61.5177 10.4858C61.9063 10.2429 62.1006 9.85221 62.1006 9.31172C62.1006 8.75707 61.9144 8.37245 61.5419 8.16193C61.1735 7.94735 60.6634 7.83804 60.0116 7.83804H56.7484Z" fill="black"/>
<path d="M71.9633 8.76112C72.8702 8.76112 73.7143 8.95141 74.4977 9.32793C75.2852 9.70647 75.9188 10.2895 76.4006 11.0769C76.8864 11.8603 77.1293 12.8623 77.1293 14.081C77.1293 15.3016 76.8864 16.3077 76.4006 17.1012C75.9188 17.8947 75.2852 18.4838 74.4977 18.8664C73.7143 19.249 72.8702 19.4413 71.9633 19.4413C71.0564 19.4413 70.2083 19.249 69.4208 18.8664C68.6374 18.4838 67.9998 17.8988 67.5099 17.1093C67.0241 16.3219 66.7811 15.3198 66.7811 14.1053C66.7811 12.8866 67.0241 11.8826 67.5099 11.0931C67.9998 10.3057 68.6374 9.72064 69.4208 9.33602C70.2083 8.95343 71.0564 8.76112 71.9633 8.76112ZM71.9633 11.0121C71.4451 11.0121 71.0261 11.1093 70.7083 11.3036C70.3884 11.498 70.1415 11.749 69.9633 12.0567C69.7892 12.3644 69.6718 12.7004 69.6071 13.0607C69.5423 13.417 69.5099 13.7571 69.5099 14.081C69.5099 14.4109 69.5423 14.753 69.6071 15.1093C69.6718 15.4656 69.7892 15.8036 69.9633 16.1214C70.1415 16.4352 70.3884 16.6923 70.7083 16.8907C71.0261 17.0911 71.4451 17.1903 71.9633 17.1903C72.4755 17.1903 72.8905 17.0931 73.2103 16.8988C73.5342 16.7044 73.7791 16.4514 73.9471 16.1376C74.1192 15.8259 74.2346 15.4899 74.2953 15.1336C74.3601 14.7733 74.3925 14.4291 74.3925 14.1053C74.3925 13.7773 74.3601 13.4332 74.2953 13.0769C74.2346 12.7166 74.1192 12.3785 73.9471 12.0648C73.7791 11.753 73.5342 11.498 73.2103 11.3036C72.8905 11.1093 72.4755 11.0121 71.9633 11.0121Z" fill="black"/>
<path d="M81.5786 5.48177V19.1741H78.9228V5.48177H81.5786Z" fill="black"/>
<path d="M84.2734 6.31577H86.9374V9.04451H88.5973V10.9554H86.9374V16.4615C86.9374 16.749 86.9859 16.9554 87.0831 17.085C87.1843 17.2105 87.5062 17.2712 88.0467 17.2712C88.1317 17.2712 88.237 17.2692 88.3625 17.2631C88.492 17.253 88.5689 17.2429 88.5973 17.2307V19.2307C88.4293 19.2409 88.2329 19.251 88.0062 19.2631C87.7835 19.2793 87.5649 19.2874 87.3503 19.2874C86.4698 19.2874 85.8078 19.1943 85.3665 19.0121C84.9293 18.8299 84.6378 18.5749 84.492 18.251C84.3463 17.9231 84.2734 17.5384 84.2734 17.1012V10.9554H82.9212V9.04451H84.2734V6.31577Z" fill="black"/>
<path d="M90.385 5.48177H93.4053L98.8304 15.004H98.8709V5.48177H101.527V19.1741H98.6603L93.0976 9.40889H93.0409V19.1741H90.385V5.48177Z" fill="black"/>
<path d="M110.282 16.1943H113.011C112.784 17 112.428 17.6417 111.942 18.1214C111.46 18.5972 110.922 18.9372 110.323 19.1417C109.728 19.3401 109.143 19.4413 108.566 19.4413C107.62 19.4413 106.764 19.2672 105.999 18.9231C105.232 18.5789 104.624 18 104.177 17.1903C103.734 16.3765 103.513 15.2773 103.513 13.8947C103.513 13.6417 103.539 13.3097 103.594 12.8988C103.647 12.4838 103.764 12.0405 103.942 11.5708C104.12 11.0972 104.388 10.6457 104.744 10.2186C105.1 9.79351 105.572 9.44533 106.161 9.17408C106.754 8.89878 107.491 8.76112 108.371 8.76112C109.327 8.76112 110.161 8.94331 110.873 9.30363C111.586 9.65991 112.139 10.2105 112.533 10.9555C112.926 11.6963 113.124 12.6518 113.124 13.8219V14.8178H106.242C106.242 15.0081 106.262 15.2449 106.307 15.5304C106.355 15.8117 106.452 16.087 106.598 16.3563C106.748 16.6275 106.979 16.8542 107.286 17.0364C107.598 17.2146 108.025 17.3036 108.566 17.3036C108.942 17.3036 109.296 17.2065 109.626 17.0121C109.96 16.8178 110.179 16.5465 110.282 16.1943ZM106.242 13.085H110.396C110.341 12.5465 110.203 12.1214 109.983 11.8138C109.766 11.502 109.509 11.2793 109.213 11.1498C108.916 11.0202 108.624 10.9555 108.339 10.9555C107.707 10.9555 107.218 11.1457 106.873 11.5223C106.527 11.8947 106.317 12.417 106.242 13.085Z" fill="black"/>
<path d="M114.199 9.02833H117.446L119.162 11.9919L120.838 9.02833H123.988L120.652 14.0081L124.102 19.1741H120.798L119.049 16.1214L117.292 19.1741H114.069L117.519 14.0081L114.199 9.02833Z" fill="black"/>
<path d="M59.8173 26.4939V37.8299H56.9751V26.4939H52.8456V24.1376H63.9468V26.4939H59.8173Z" fill="black"/>
<path d="M71.6459 34.8502H74.3746C74.1479 35.6558 73.7916 36.2975 73.3058 36.7773C72.824 37.253 72.2856 37.5931 71.6864 37.7975C71.0912 37.9959 70.5062 38.0971 69.9293 38.0971C68.9839 38.0971 68.1277 37.923 67.3625 37.5789C66.5953 37.2348 65.988 36.6558 65.5406 35.8461C65.0973 35.0324 64.8766 33.9332 64.8766 32.5506C64.8766 32.2975 64.903 31.9656 64.9576 31.5546C65.0103 31.1396 65.1277 30.6963 65.3058 30.2267C65.4839 29.753 65.7511 29.3016 66.1074 28.8745C66.4637 28.4494 66.9354 28.1012 67.5244 27.8299C68.1175 27.5546 68.8544 27.417 69.7349 27.417C70.6904 27.417 71.5244 27.5992 72.237 27.9595C72.9495 28.3158 73.5022 28.8664 73.8969 29.6113C74.2896 30.3522 74.488 31.3077 74.488 32.4777V33.4736H67.6054C67.6054 33.6639 67.6256 33.9008 67.6702 34.1862C67.7188 34.4676 67.8159 34.7429 67.9617 35.0121C68.1115 35.2834 68.3422 35.5101 68.6499 35.6923C68.9617 35.8704 69.3888 35.9595 69.9293 35.9595C70.3058 35.9595 70.66 35.8623 70.99 35.668C71.324 35.4736 71.5426 35.2024 71.6459 34.8502ZM67.6054 31.7409H71.7592C71.7046 31.2024 71.5669 30.7773 71.3463 30.4696C71.1297 30.1579 70.8726 29.9352 70.5771 29.8056C70.2795 29.6761 69.988 29.6113 69.7026 29.6113C69.071 29.6113 68.5811 29.8016 68.237 30.1781C67.8908 30.5506 67.6803 31.0728 67.6054 31.7409Z" fill="black"/>
<path d="M82.4287 34.1376H85.1088C85.0805 34.338 85.0218 34.6052 84.9307 34.9392C84.8436 35.2692 84.6999 35.6153 84.5015 35.9757C84.3011 36.3319 84.0319 36.6761 83.6918 37.004C83.3517 37.3279 82.9165 37.5931 82.3882 37.7975C81.8639 37.9959 81.2303 38.0971 80.4853 38.0971C79.5299 38.0971 78.7465 37.9372 78.1372 37.6194C77.5258 37.2955 77.0521 36.8805 76.7121 36.3724C76.372 35.8603 76.1372 35.3097 76.0076 34.7206C75.8781 34.1275 75.8133 33.5668 75.8133 33.0364C75.8133 31.9473 75.9772 30.9797 76.3072 30.1376C76.6412 29.2955 77.1615 28.6315 77.87 28.1457C78.5825 27.6599 79.5096 27.417 80.6554 27.417C81.0602 27.417 81.5015 27.4736 81.9833 27.587C82.4691 27.7004 82.9408 27.9008 83.4003 28.1862C83.8578 28.4676 84.2444 28.8583 84.5582 29.3603C84.87 29.8623 85.0602 30.5101 85.125 31.3036H82.4287C82.3902 31.0769 82.3113 30.84 82.1938 30.5911C82.0744 30.338 81.8942 30.1214 81.6513 29.9433C81.4125 29.7611 81.0805 29.668 80.6554 29.668C80.0886 29.668 79.6534 29.8259 79.3517 30.1376C79.0481 30.4514 78.8376 30.834 78.7202 31.2874C78.6007 31.7409 78.542 32.1821 78.542 32.6073C78.542 32.8826 78.5582 33.2064 78.5906 33.5789C78.623 33.9514 78.6979 34.3158 78.8173 34.672C78.9347 35.0283 79.1351 35.3238 79.4165 35.5546C79.7019 35.7874 80.0967 35.9028 80.5987 35.9028C81.0521 35.9028 81.4125 35.7874 81.6837 35.5546C81.953 35.3238 82.1453 35.0668 82.2586 34.7854C82.372 34.5 82.4287 34.2834 82.4287 34.1376Z" fill="black"/>
<path d="M89.5737 24.1376V29.004H89.6142C89.7863 28.589 90.1365 28.2226 90.6668 27.9028C91.1952 27.5789 91.8247 27.417 92.5535 27.417C93.2215 27.417 93.8187 27.5465 94.3429 27.8056C94.8713 28.0648 95.2903 28.4453 95.598 28.9473C95.9057 29.4494 96.0595 30.0728 96.0595 30.8178V37.8299H93.4037V31.6599C93.4037 31.4716 93.3895 31.2672 93.3632 31.0445C93.3409 30.8178 93.2761 30.6032 93.1689 30.3967C93.0595 30.1862 92.8895 30.0141 92.6587 29.8785C92.4259 29.7388 92.096 29.668 91.6709 29.668C91.0757 29.668 90.5778 29.8664 90.1729 30.2591C89.7721 30.6538 89.5737 31.2429 89.5737 32.0243V37.8299H86.9178V24.1376H89.5737Z" fill="black"/>
<path d="M98.3259 27.6842H100.868V29.1741H100.909C101.032 28.9757 101.208 28.7368 101.435 28.4615C101.662 28.1822 101.978 27.9392 102.383 27.7328C102.791 27.5222 103.318 27.417 103.962 27.417C104.63 27.417 105.227 27.5465 105.751 27.8056C106.279 28.0647 106.698 28.4453 107.006 28.9473C107.314 29.4494 107.468 30.0728 107.468 30.8178V37.8299H104.812V31.6599C104.812 31.4716 104.798 31.2672 104.771 31.0445C104.749 30.8178 104.684 30.6032 104.577 30.3967C104.468 30.1862 104.298 30.0141 104.067 29.8785C103.834 29.7388 103.504 29.668 103.079 29.668C102.484 29.668 101.986 29.8664 101.581 30.2591C101.18 30.6538 100.982 31.2429 100.982 32.0243V37.8299H98.3259V27.6842Z" fill="black"/>
<path d="M114.446 27.417C115.353 27.417 116.197 27.6073 116.981 27.9838C117.768 28.3623 118.402 28.9453 118.884 29.7328C119.37 30.5162 119.612 31.5182 119.612 32.7368C119.612 33.9575 119.37 34.9635 118.884 35.757C118.402 36.5506 117.768 37.1396 116.981 37.5222C116.197 37.9048 115.353 38.0971 114.446 38.0971C113.54 38.0971 112.691 37.9048 111.904 37.5222C111.121 37.1396 110.483 36.5546 109.993 35.7651C109.507 34.9777 109.264 33.9757 109.264 32.7611C109.264 31.5425 109.507 30.5384 109.993 29.749C110.483 28.9615 111.121 28.3765 111.904 27.9919C112.691 27.6093 113.54 27.417 114.446 27.417ZM114.446 29.668C113.928 29.668 113.509 29.7651 113.191 29.9595C112.872 30.1538 112.625 30.4048 112.446 30.7125C112.272 31.0202 112.155 31.3562 112.09 31.7166C112.025 32.0728 111.993 32.4129 111.993 32.7368C111.993 33.0668 112.025 33.4089 112.09 33.7651C112.155 34.1214 112.272 34.4595 112.446 34.7773C112.625 35.0911 112.872 35.3481 113.191 35.5465C113.509 35.7469 113.928 35.8461 114.446 35.8461C114.959 35.8461 115.374 35.749 115.693 35.5546C116.017 35.3603 116.262 35.1073 116.43 34.7935C116.602 34.4817 116.718 34.1457 116.778 33.7894C116.843 33.4291 116.876 33.085 116.876 32.7611C116.876 32.4332 116.843 32.089 116.778 31.7328C116.718 31.3724 116.602 31.0344 116.43 30.7206C116.262 30.4089 116.017 30.1538 115.693 29.9595C115.374 29.7651 114.959 29.668 114.446 29.668Z" fill="black"/>
<path d="M124.062 24.1376V37.8299H121.406V24.1376H124.062Z" fill="black"/>
<path d="M131.04 27.417C131.947 27.417 132.791 27.6073 133.574 27.9838C134.362 28.3623 134.995 28.9453 135.477 29.7328C135.963 30.5162 136.206 31.5182 136.206 32.7368C136.206 33.9575 135.963 34.9635 135.477 35.757C134.995 36.5506 134.362 37.1396 133.574 37.5222C132.791 37.9048 131.947 38.0971 131.04 38.0971C130.133 38.0971 129.285 37.9048 128.497 37.5222C127.714 37.1396 127.076 36.5546 126.586 35.7651C126.101 34.9777 125.858 33.9757 125.858 32.7611C125.858 31.5425 126.101 30.5384 126.586 29.749C127.076 28.9615 127.714 28.3765 128.497 27.9919C129.285 27.6093 130.133 27.417 131.04 27.417ZM131.04 29.668C130.522 29.668 130.103 29.7651 129.785 29.9595C129.465 30.1538 129.218 30.4048 129.04 30.7125C128.866 31.0202 128.748 31.3562 128.684 31.7166C128.619 32.0728 128.586 32.4129 128.586 32.7368C128.586 33.0668 128.619 33.4089 128.684 33.7651C128.748 34.1214 128.866 34.4595 129.04 34.7773C129.218 35.0911 129.465 35.3481 129.785 35.5465C130.103 35.7469 130.522 35.8461 131.04 35.8461C131.552 35.8461 131.967 35.749 132.287 35.5546C132.611 35.3603 132.856 35.1073 133.024 34.7935C133.196 34.4817 133.311 34.1457 133.372 33.7894C133.437 33.4291 133.469 33.085 133.469 32.7611C133.469 32.4332 133.437 32.089 133.372 31.7328C133.311 31.3724 133.196 31.0344 133.024 30.7206C132.856 30.4089 132.611 30.1538 132.287 29.9595C131.967 29.7651 131.552 29.668 131.04 29.668Z" fill="black"/>
<path d="M144.825 27.6842H147.368V37.2793C147.368 37.6356 147.348 38.0263 147.311 38.4534C147.273 38.8785 147.167 39.3036 146.995 39.7247C146.827 40.1457 146.566 40.5344 146.21 40.8906C145.854 41.251 145.354 41.5384 144.712 41.7489C144.068 41.9635 143.25 42.0728 142.259 42.0728C141.566 42.0728 140.886 41.9635 140.218 41.7489C139.554 41.5384 138.999 41.2085 138.558 40.7611C138.121 40.3117 137.882 39.7328 137.846 39.0202H140.728C140.765 39.1821 140.829 39.3441 140.922 39.506C141.02 39.672 141.194 39.8056 141.449 39.9028C141.702 40.004 142.084 40.0566 142.599 40.0566C143.315 40.0566 143.866 39.8542 144.25 39.4494C144.633 39.0485 144.825 38.4473 144.825 37.6437V36.3805H144.752C144.611 36.6295 144.414 36.8886 144.161 37.1579C143.912 37.4291 143.607 37.6518 143.246 37.8299C142.89 38.0081 142.471 38.0971 141.991 38.0971C141.176 38.0971 140.429 37.8906 139.748 37.4817C139.072 37.0728 138.534 36.4655 138.129 35.6599C137.728 34.8562 137.53 33.8623 137.53 32.6801C137.53 31.5141 137.728 30.5425 138.129 29.7651C138.534 28.9838 139.064 28.3967 139.724 28.0081C140.382 27.6153 141.084 27.417 141.829 27.417C142.455 27.417 142.965 27.5202 143.36 27.7247C143.759 27.9251 144.072 28.1619 144.299 28.4372C144.526 28.7125 144.688 28.9635 144.785 29.1902H144.825V27.6842ZM142.542 29.7247C141.975 29.7247 141.524 29.8745 141.19 30.17C140.86 30.4615 140.623 30.8461 140.477 31.3198C140.331 31.7894 140.259 32.2955 140.259 32.834C140.259 33.1376 140.293 33.4635 140.364 33.8137C140.433 34.166 140.552 34.502 140.72 34.8259C140.892 35.1457 141.119 35.4048 141.4 35.6032C141.686 35.8036 142.042 35.9028 142.469 35.9028C143.036 35.9028 143.491 35.7651 143.837 35.4898C144.182 35.2145 144.433 34.8562 144.591 34.4129C144.746 33.9655 144.825 33.4878 144.825 32.9797C144.825 32.4413 144.761 31.923 144.631 31.4251C144.505 30.9291 144.279 30.5222 143.951 30.2024C143.627 29.8846 143.157 29.7247 142.542 29.7247Z" fill="black"/>
<path d="M148.686 27.6842H151.666L153.836 35.1498H153.877L155.949 27.6842H158.775L155.286 37.6437C154.998 38.4696 154.739 39.1538 154.508 39.7004C154.275 40.251 154.026 40.6842 153.763 41.004C153.498 41.3279 153.176 41.5566 152.8 41.6923C152.421 41.8319 151.943 41.9028 151.367 41.9028C151.188 41.9028 150.988 41.8987 150.767 41.8947C150.551 41.8886 150.348 41.8785 150.16 41.8623V39.7328C150.225 39.7489 150.298 39.7591 150.379 39.7651C150.46 39.7692 150.557 39.7732 150.67 39.7732C150.994 39.7732 151.271 39.7408 151.504 39.6761C151.741 39.6153 151.933 39.4777 152.079 39.2631C152.229 39.0465 152.342 38.7064 152.419 38.2429L148.686 27.6842Z" fill="black"/>
</g>
</g>
<mask id="mask4_105_784" style="mask-type:luminance" maskUnits="userSpaceOnUse" x="68" y="8" width="8" height="11">
<path d="M68.7935 8.80972H75.0122V18.1376H68.7935V8.80972Z" fill="white"/>
</mask>
<g mask="url(#mask4_105_784)">
<mask id="mask5_105_784" style="mask-type:luminance" maskUnits="userSpaceOnUse" x="69" y="9" width="6" height="10">
<path d="M70.1073 9.15991L74.9656 9.7591L73.9413 18.0789L69.083 17.4797L70.1073 9.15991Z" fill="white"/>
</mask>
<g mask="url(#mask5_105_784)">
<mask id="mask6_105_784" style="mask-type:luminance" maskUnits="userSpaceOnUse" x="68" y="8" width="8" height="11">
<path d="M75.0122 8.80971H68.7935V18.1376H75.0122V8.80971Z" fill="white"/>
</mask>
<g mask="url(#mask6_105_784)">
<mask id="mask7_105_784" style="mask-type:luminance" maskUnits="userSpaceOnUse" x="69" y="9" width="6" height="10">
<path d="M69.0223 9.12144H74.9919V18.1376H69.0223V9.12144Z" fill="white"/>
</mask>
<g mask="url(#mask7_105_784)">
<mask id="mask8_105_784" style="mask-type:luminance" maskUnits="userSpaceOnUse" x="69" y="9" width="6" height="10">
<path d="M70.1073 9.15991L74.9656 9.7591L73.9413 18.0789L69.083 17.4797L70.1073 9.15991Z" fill="white"/>
</mask>
<g mask="url(#mask8_105_784)">
<path d="M70.1073 9.15991L74.9656 9.7591L73.9433 18.0729L69.083 17.4737L70.1073 9.15991Z" fill="black"/>
</g>
</g>
</g>
</g>
</g>
<mask id="mask9_105_784" style="mask-type:luminance" maskUnits="userSpaceOnUse" x="70" y="8" width="4" height="12">
<path d="M70.3482 8.80972H73.9757V19.1741H70.3482V8.80972Z" fill="white"/>
</mask>
<g mask="url(#mask9_105_784)">
<mask id="mask10_105_784" style="mask-type:luminance" maskUnits="userSpaceOnUse" x="69" y="9" width="7" height="10">
<path d="M69.083 10.1113L73.6903 9.14169L75.5466 17.9737L70.9393 18.9433L69.083 10.1113Z" fill="white"/>
</mask>
<g mask="url(#mask10_105_784)">
<mask id="mask11_105_784" style="mask-type:luminance" maskUnits="userSpaceOnUse" x="69" y="9" width="7" height="10">
<path d="M69.083 10.1113L73.6903 9.14169L75.5466 17.9737L70.9393 18.9433L69.083 10.1113Z" fill="white"/>
</mask>
<g mask="url(#mask11_105_784)">
<path d="M71.3259 9.63967L73.6073 9.15991L72.4413 12.6053L73.7794 12.3239L70.9514 18.9959L71.8118 14.1012L70.3725 14.4797L71.3259 9.63967Z" fill="white"/>
</g>
</g>
</g>
<mask id="mask12_105_784" style="mask-type:luminance" maskUnits="userSpaceOnUse" x="70" y="9" width="3" height="11">
<path d="M70.3482 9.32792H72.4211V19.1741H70.3482V9.32792Z" fill="white"/>
</mask>
<g mask="url(#mask12_105_784)">
<mask id="mask13_105_784" style="mask-type:luminance" maskUnits="userSpaceOnUse" x="69" y="9" width="7" height="10">
<path d="M69.083 10.1113L73.6903 9.14169L75.5466 17.9737L70.9393 18.9433L69.083 10.1113Z" fill="white"/>
</mask>
<g mask="url(#mask13_105_784)">
<mask id="mask14_105_784" style="mask-type:luminance" maskUnits="userSpaceOnUse" x="69" y="9" width="7" height="10">
<path d="M69.083 10.1113L73.6903 9.14169L75.5466 17.9737L70.9393 18.9433L69.083 10.1113Z" fill="white"/>
</mask>
<g mask="url(#mask14_105_784)">
<path d="M71.3259 9.63967L71.7187 9.55668L70.3725 14.4798L71.3259 9.63967ZM70.9514 18.9959L72.0871 14.0425L71.8118 14.1012L70.9514 18.9959Z" fill="black"/>
</g>
</g>
</g>
</g>
</svg>
