<svg width="64" height="64" viewBox="0 0 64 64" fill="none" xmlns="http://www.w3.org/2000/svg">
<path d="M38.6667 22.6668C36.5848 22.1271 33.6918 21.3335 31.3726 21.3335C19.937 21.3335 10.6667 28.4471 10.6667 37.2223C10.6667 42.265 13.7279 46.7588 18.502 49.6698L17.2085 53.9359C16.897 54.9634 17.6659 56.0002 18.7396 56.0002H23.4439C23.7903 56.0002 24.1273 55.8879 24.4043 55.6799L28.1232 52.889H34.6216L38.3406 55.6799C38.6176 55.8879 38.9547 56.0002 39.3011 56.0002H44.0054C45.079 56.0002 45.848 54.9634 45.5363 53.9359L44.243 49.6698C47.0872 47.9356 49.3235 45.6394 50.6667 43.0002" stroke="#3461FF" stroke-width="1.5" stroke-linecap="round" stroke-linejoin="round"/>
<path d="M38.6667 22.6665L50.6667 18.6665L50.4427 28.342L56 30.6665V39.9998L50.8643 42.6665" stroke="#3461FF" stroke-width="1.5" stroke-linecap="round" stroke-linejoin="round"/>
<path d="M41.3333 34.6667C40.5971 34.6667 40 34.0696 40 33.3333C40 32.5971 40.5971 32 41.3333 32C42.0696 32 42.6667 32.5971 42.6667 33.3333C42.6667 34.0696 42.0696 34.6667 41.3333 34.6667Z" fill="#3461FF" stroke="#3461FF" stroke-width="1.5" stroke-linecap="round" stroke-linejoin="round"/>
<path d="M5.33331 26.6665C5.33331 26.6665 5.33331 33.0665 10.6666 34.6665" stroke="#3461FF" stroke-width="1.5" stroke-linecap="round" stroke-linejoin="round"/>
<path d="M34.1355 20.6746C34.4795 19.6835 34.6667 18.617 34.6667 17.5059C34.6667 12.2559 30.488 8 25.3333 8C20.1787 8 16 12.2559 16 17.5059C16 20.017 16.956 22.3007 18.5174 24" stroke="#3461FF" stroke-width="1.5" stroke-linejoin="round"/>
</svg>
