<svg width="59" height="59" viewBox="0 0 59 59" fill="none" xmlns="http://www.w3.org/2000/svg">
<g filter="url(#filter0_d_86_229)">
<rect x="6.75" y="3.75" width="45" height="45" rx="10" fill="#8399E9" fill-opacity="0.26" shape-rendering="crispEdges"/>
</g>
<path d="M37.875 12.2344C37.8754 12.0208 37.8124 11.812 37.6939 11.6344C37.5755 11.4567 37.407 11.3182 37.2097 11.2365C37.0125 11.1547 36.7954 11.1334 36.586 11.1751C36.3766 11.2169 36.1844 11.3199 36.0336 11.471L31.7211 15.7835C31.621 15.8838 31.5417 16.0029 31.4877 16.1339C31.4337 16.2648 31.406 16.4052 31.4063 16.5469V22.5693L29.8085 24.1649C29.4888 24.0801 29.154 24.0697 28.8298 24.1347C28.5055 24.1997 28.2005 24.3383 27.9382 24.5397C27.676 24.7411 27.4635 25.0001 27.317 25.2966C27.1706 25.5931 27.0942 25.9193 27.0938 26.25C27.0939 26.5568 27.1595 26.8601 27.2863 27.1396C27.413 27.4191 27.598 27.6683 27.8287 27.8705C28.0595 28.0728 28.3308 28.2235 28.6244 28.3125C28.9181 28.4015 29.2274 28.4268 29.5316 28.3868C29.8359 28.3467 30.128 28.2421 30.3886 28.0801C30.6492 27.918 30.8722 27.7022 31.0427 27.4471C31.2133 27.192 31.3273 26.9034 31.3774 26.6006C31.4274 26.2979 31.4123 25.9879 31.3329 25.6915L32.9307 24.0937H38.9531C39.0948 24.094 39.2351 24.0663 39.3661 24.0123C39.4971 23.9583 39.6161 23.879 39.7164 23.7789L44.0289 19.4664C44.1801 19.3156 44.2831 19.1234 44.3249 18.914C44.3666 18.7046 44.3453 18.4875 44.2635 18.2903C44.1817 18.093 44.0433 17.9245 43.8656 17.8061C43.688 17.6876 43.4791 17.6246 43.2656 17.625H37.875V12.2344ZM42.0668 24.4775C42.4378 27.1624 41.9562 29.8961 40.69 32.2925C39.4238 34.689 37.4369 36.6273 35.0098 37.8337C32.5827 39.0402 29.838 39.4539 27.1632 39.0165C24.4883 38.5791 22.0183 37.3126 20.102 35.3959C18.1856 33.4792 16.9196 31.009 16.4827 28.334C16.0458 25.659 16.4601 22.9144 17.667 20.4875C18.874 18.0607 20.8126 16.0742 23.2094 14.8084C25.6061 13.5427 28.3398 13.0617 31.0246 13.4332L30.1988 14.2591C29.8981 14.5594 29.6595 14.916 29.4967 15.3086C29.3339 15.7011 29.2501 16.1219 29.25 16.5469C27.3309 16.5469 25.4549 17.1159 23.8592 18.1821C22.2636 19.2483 21.0199 20.7637 20.2855 22.5368C19.5511 24.3098 19.3589 26.2607 19.7333 28.143C20.1077 30.0252 21.0319 31.7541 22.3889 33.1111C23.7459 34.4681 25.4748 35.3923 27.357 35.7667C29.2392 36.1411 31.1902 35.9489 32.9632 35.2145C34.7362 34.4801 36.2517 33.2364 37.3179 31.6407C38.3841 30.0451 38.9531 28.1691 38.9531 26.25C39.8107 26.2492 40.6328 25.908 41.2388 25.3012L42.0668 24.4775ZM29.25 18.7031C27.7574 18.7031 26.2983 19.1457 25.0572 19.975C23.8161 20.8042 22.8488 21.9829 22.2776 23.3619C21.7064 24.7409 21.5569 26.2584 21.8481 27.7223C22.1393 29.1863 22.8581 30.531 23.9136 31.5864C24.969 32.6419 26.3137 33.3606 27.7777 33.6518C29.2416 33.943 30.7591 33.7936 32.1381 33.2224C33.5171 32.6512 34.6957 31.6839 35.525 30.4428C36.3543 29.2017 36.7969 27.7426 36.7969 26.25H33.8234L33.5539 26.5195C33.502 27.3479 33.2123 28.1437 32.7193 28.8114C32.2264 29.4792 31.5512 29.9905 30.7748 30.284C29.9985 30.5775 29.1539 30.6408 28.3425 30.4662C27.5311 30.2915 26.7873 29.8865 26.2004 29.2996C25.6135 28.7127 25.2084 27.9689 25.0338 27.1575C24.8592 26.3461 24.9224 25.5015 25.216 24.7251C25.5095 23.9488 26.0208 23.2736 26.6885 22.7807C27.3563 22.2877 28.1521 21.9979 28.9805 21.9461L29.25 21.6766V18.7031Z" fill="#3461FF"/>
<defs>
<filter id="filter0_d_86_229" x="0" y="0" width="58.5" height="58.5" filterUnits="userSpaceOnUse" color-interpolation-filters="sRGB">
<feFlood flood-opacity="0" result="BackgroundImageFix"/>
<feColorMatrix in="SourceAlpha" type="matrix" values="0 0 0 0 0 0 0 0 0 0 0 0 0 0 0 0 0 0 127 0" result="hardAlpha"/>
<feOffset dy="3"/>
<feGaussianBlur stdDeviation="3.375"/>
<feComposite in2="hardAlpha" operator="out"/>
<feColorMatrix type="matrix" values="0 0 0 0 0 0 0 0 0 0 0 0 0 0 0 0 0 0 0.05 0"/>
<feBlend mode="normal" in2="BackgroundImageFix" result="effect1_dropShadow_86_229"/>
<feBlend mode="normal" in="SourceGraphic" in2="effect1_dropShadow_86_229" result="shape"/>
</filter>
</defs>
</svg>
